<svg xmlns="http://www.w3.org/2000/svg" xmlns:xlink="http://www.w3.org/1999/xlink" width="500" zoomAndPan="magnify" viewBox="0 0 375 374.999991" height="500" preserveAspectRatio="xMidYMid meet" version="1.0"><defs><g/></defs><rect x="-37.5" width="450" fill="#ffffff" y="-37.499999" height="449.999989" fill-opacity="1"/><rect x="-37.5" width="450" fill="#ffffff" y="-37.499999" height="449.999989" fill-opacity="1"/><g fill="#000000" fill-opacity="1"><g transform="translate(6.811722, 251.764668)"><g><path d="M 148.828125 -47.34375 L 175.109375 -158.578125 L 212.9375 -158.578125 L 170.34375 0 L 131.84375 0 L 107.609375 -94.234375 L 82.90625 0 L 44.40625 0 L 1.8125 -158.578125 L 40.09375 -158.578125 L 66.375 -47.34375 L 92.875 -158.578125 L 122.09375 -158.578125 Z M 148.828125 -47.34375 "/></g></g></g><g fill="#dd0000" fill-opacity="1"><g transform="translate(221.562878, 251.764668)"><g><path d="M 74.078125 0 L 14.953125 0 L 14.953125 -158.578125 L 74.078125 -158.578125 C 89.785156 -158.578125 103.335938 -155.40625 114.734375 -149.0625 C 126.140625 -142.71875 134.898438 -133.65625 141.015625 -121.875 C 147.128906 -110.09375 150.1875 -95.972656 150.1875 -79.515625 C 150.1875 -63.054688 147.128906 -48.859375 141.015625 -36.921875 C 134.898438 -24.992188 126.140625 -15.859375 114.734375 -9.515625 C 103.335938 -3.171875 89.785156 0 74.078125 0 Z M 51.203125 -126.859375 L 51.203125 -31.71875 L 72.265625 -31.71875 C 84.953125 -31.71875 94.769531 -35.796875 101.71875 -43.953125 C 108.664062 -52.109375 112.140625 -63.882812 112.140625 -79.28125 C 112.140625 -94.6875 108.664062 -106.46875 101.71875 -114.625 C 94.769531 -122.78125 84.953125 -126.859375 72.265625 -126.859375 Z M 51.203125 -126.859375 "/></g></g></g></svg>