<svg xmlns="http://www.w3.org/2000/svg" xmlns:xlink="http://www.w3.org/1999/xlink" width="500" zoomAndPan="magnify" viewBox="0 0 375 374.999991" height="500" preserveAspectRatio="xMidYMid meet" version="1.0"><defs><g/></defs><rect x="-37.5" width="450" fill="#ffffff" y="-37.499999" height="449.999989" fill-opacity="1"/><rect x="-37.5" width="450" fill="#ffffff" y="-37.499999" height="449.999989" fill-opacity="1"/><g fill="#000000" fill-opacity="1"><g transform="translate(1.520512, 204.374987)"><g><path d="M 39.078125 -12.4375 L 45.984375 -41.640625 L 55.921875 -41.640625 L 44.734375 0 L 34.625 0 L 28.25 -24.75 L 21.765625 0 L 11.65625 0 L 0.46875 -41.640625 L 10.53125 -41.640625 L 17.421875 -12.4375 L 24.390625 -41.640625 L 32.0625 -41.640625 Z M 39.078125 -12.4375 "/></g></g></g><g fill="#000000" fill-opacity="1"><g transform="translate(57.900548, 204.374987)"><g><path d="M 15.046875 -33.546875 C 20.085938 -33.546875 23.726562 -32.328125 25.96875 -29.890625 C 28.207031 -27.453125 29.328125 -24.113281 29.328125 -19.875 L 29.328125 0 L 20.21875 0 L 20.21875 -4.046875 C 19.382812 -2.578125 18.203125 -1.414062 16.671875 -0.5625 C 15.148438 0.289062 13.34375 0.71875 11.25 0.71875 C 9.382812 0.71875 7.707031 0.289062 6.21875 -0.5625 C 4.726562 -1.414062 3.546875 -2.625 2.671875 -4.1875 C 1.804688 -5.757812 1.375 -7.613281 1.375 -9.75 C 1.375 -12.800781 2.296875 -15.207031 4.140625 -16.96875 C 5.984375 -18.738281 8.882812 -19.625 12.84375 -19.625 C 14.039062 -19.625 15.3125 -19.582031 16.65625 -19.5 C 18 -19.425781 19.1875 -19.347656 20.21875 -19.265625 L 20.21875 -19.984375 C 20.21875 -21.847656 19.691406 -23.296875 18.640625 -24.328125 C 17.597656 -25.359375 16.023438 -25.875 13.921875 -25.875 C 12.453125 -25.875 10.972656 -25.710938 9.484375 -25.390625 C 7.992188 -25.078125 6.632812 -24.664062 5.40625 -24.15625 L 4.515625 -31.765625 C 6.023438 -32.316406 7.671875 -32.75 9.453125 -33.0625 C 11.242188 -33.382812 13.109375 -33.546875 15.046875 -33.546875 Z M 14.390625 -6.78125 C 18.273438 -6.78125 20.21875 -9.140625 20.21875 -13.859375 L 20.21875 -13.984375 C 19.46875 -14.054688 18.695312 -14.125 17.90625 -14.1875 C 17.113281 -14.25 16.222656 -14.28125 15.234375 -14.28125 C 13.398438 -14.28125 12.085938 -13.988281 11.296875 -13.40625 C 10.503906 -12.832031 10.109375 -11.894531 10.109375 -10.59375 C 10.109375 -9.519531 10.492188 -8.613281 11.265625 -7.875 C 12.046875 -7.144531 13.085938 -6.78125 14.390625 -6.78125 Z M 14.390625 -6.78125 "/></g></g></g><g fill="#000000" fill-opacity="1"><g transform="translate(90.253657, 204.374987)"><g><path d="M 20.046875 -33.4375 C 20.484375 -33.4375 20.988281 -33.40625 21.5625 -33.34375 C 22.132812 -33.28125 22.703125 -33.171875 23.265625 -33.015625 L 22.359375 -24.203125 C 21.890625 -24.285156 21.304688 -24.335938 20.609375 -24.359375 C 19.921875 -24.378906 19.316406 -24.390625 18.796875 -24.390625 C 16.847656 -24.390625 15.316406 -23.503906 14.203125 -21.734375 C 13.097656 -19.972656 12.546875 -17.546875 12.546875 -14.453125 L 12.546875 0 L 3.328125 0 L 3.328125 -32.828125 L 12.546875 -32.828125 L 12.546875 -28.734375 C 14.140625 -31.867188 16.640625 -33.4375 20.046875 -33.4375 Z M 20.046875 -33.4375 "/></g></g></g><g fill="#000000" fill-opacity="1"><g transform="translate(113.626394, 204.374987)"><g><path d="M 33.25 -11.1875 L 38.421875 -32.828125 L 48 -32.828125 L 38.546875 0 L 29.203125 0 L 24.453125 -19.328125 L 19.625 0 L 10.34375 0 L 0.890625 -32.828125 L 10.46875 -32.828125 L 15.640625 -11.1875 L 20.703125 -32.828125 L 28.140625 -32.828125 Z M 33.25 -11.1875 "/></g></g></g><g fill="#000000" fill-opacity="1"><g transform="translate(162.45341, 204.374987)"><g><path d="M 12.671875 -36.53125 L 3.15625 -36.53125 L 3.15625 -44.140625 L 12.671875 -44.140625 Z M 12.546875 0 L 3.328125 0 L 3.328125 -32.828125 L 12.546875 -32.828125 Z M 12.546875 0 "/></g></g></g><g fill="#000000" fill-opacity="1"><g transform="translate(178.273127, 204.374987)"><g><path d="M 17.78125 0.65625 C 14.6875 0.65625 11.953125 -0.0234375 9.578125 -1.390625 C 7.203125 -2.765625 5.328125 -4.726562 3.953125 -7.28125 C 2.585938 -9.84375 1.90625 -12.890625 1.90625 -16.421875 C 1.90625 -19.953125 2.609375 -22.992188 4.015625 -25.546875 C 5.421875 -28.109375 7.320312 -30.082031 9.71875 -31.46875 C 12.125 -32.851562 14.8125 -33.546875 17.78125 -33.546875 C 19.570312 -33.546875 21.296875 -33.304688 22.953125 -32.828125 C 24.617188 -32.359375 26.25 -31.585938 27.84375 -30.515625 L 24.8125 -23.3125 C 23.695312 -24.101562 22.648438 -24.664062 21.671875 -25 C 20.703125 -25.34375 19.644531 -25.515625 18.5 -25.515625 C 16.320312 -25.515625 14.554688 -24.738281 13.203125 -23.1875 C 11.859375 -21.644531 11.1875 -19.410156 11.1875 -16.484375 C 11.1875 -13.503906 11.859375 -11.226562 13.203125 -9.65625 C 14.554688 -8.09375 16.320312 -7.3125 18.5 -7.3125 C 20.601562 -7.3125 22.742188 -8.007812 24.921875 -9.40625 L 27.84375 -2.3125 C 26.132812 -1.207031 24.476562 -0.4375 22.875 0 C 21.269531 0.4375 19.570312 0.65625 17.78125 0.65625 Z M 17.78125 0.65625 "/></g></g></g><g fill="#000000" fill-opacity="1"><g transform="translate(207.057876, 204.374987)"><g><path d="M 22.546875 -32.828125 L 32.78125 -32.828125 L 20.171875 -16.65625 L 32.78125 0 L 22.609375 0 L 12.546875 -13.984375 L 12.546875 0 L 3.390625 0 L 3.390625 -43.90625 L 12.546875 -43.90625 L 12.546875 -19.265625 Z M 22.546875 -32.828125 "/></g></g></g><g fill="#dd0000" fill-opacity="1"><g transform="translate(240.606434, 204.374987)"><g><path d="M 19.453125 0 L 3.921875 0 L 3.921875 -41.640625 L 19.453125 -41.640625 C 23.578125 -41.640625 27.132812 -40.804688 30.125 -39.140625 C 33.125 -37.472656 35.425781 -35.09375 37.03125 -32 C 38.632812 -28.90625 39.4375 -25.195312 39.4375 -20.875 C 39.4375 -16.550781 38.632812 -12.820312 37.03125 -9.6875 C 35.425781 -6.5625 33.125 -4.164062 30.125 -2.5 C 27.132812 -0.832031 23.578125 0 19.453125 0 Z M 13.4375 -33.3125 L 13.4375 -8.328125 L 18.96875 -8.328125 C 22.300781 -8.328125 24.878906 -9.394531 26.703125 -11.53125 C 28.523438 -13.675781 29.4375 -16.769531 29.4375 -20.8125 C 29.4375 -24.863281 28.523438 -27.957031 26.703125 -30.09375 C 24.878906 -32.238281 22.300781 -33.3125 18.96875 -33.3125 Z M 13.4375 -33.3125 "/></g></g></g><g fill="#dd0000" fill-opacity="1"><g transform="translate(282.534631, 204.374987)"><g><path d="M 15.046875 -33.546875 C 20.085938 -33.546875 23.726562 -32.328125 25.96875 -29.890625 C 28.207031 -27.453125 29.328125 -24.113281 29.328125 -19.875 L 29.328125 0 L 20.21875 0 L 20.21875 -4.046875 C 19.382812 -2.578125 18.203125 -1.414062 16.671875 -0.5625 C 15.148438 0.289062 13.34375 0.71875 11.25 0.71875 C 9.382812 0.71875 7.707031 0.289062 6.21875 -0.5625 C 4.726562 -1.414062 3.546875 -2.625 2.671875 -4.1875 C 1.804688 -5.757812 1.375 -7.613281 1.375 -9.75 C 1.375 -12.800781 2.296875 -15.207031 4.140625 -16.96875 C 5.984375 -18.738281 8.882812 -19.625 12.84375 -19.625 C 14.039062 -19.625 15.3125 -19.582031 16.65625 -19.5 C 18 -19.425781 19.1875 -19.347656 20.21875 -19.265625 L 20.21875 -19.984375 C 20.21875 -21.847656 19.691406 -23.296875 18.640625 -24.328125 C 17.597656 -25.359375 16.023438 -25.875 13.921875 -25.875 C 12.453125 -25.875 10.972656 -25.710938 9.484375 -25.390625 C 7.992188 -25.078125 6.632812 -24.664062 5.40625 -24.15625 L 4.515625 -31.765625 C 6.023438 -32.316406 7.671875 -32.75 9.453125 -33.0625 C 11.242188 -33.382812 13.109375 -33.546875 15.046875 -33.546875 Z M 14.390625 -6.78125 C 18.273438 -6.78125 20.21875 -9.140625 20.21875 -13.859375 L 20.21875 -13.984375 C 19.46875 -14.054688 18.695312 -14.125 17.90625 -14.1875 C 17.113281 -14.25 16.222656 -14.28125 15.234375 -14.28125 C 13.398438 -14.28125 12.085938 -13.988281 11.296875 -13.40625 C 10.503906 -12.832031 10.109375 -11.894531 10.109375 -10.59375 C 10.109375 -9.519531 10.492188 -8.613281 11.265625 -7.875 C 12.046875 -7.144531 13.085938 -6.78125 14.390625 -6.78125 Z M 14.390625 -6.78125 "/></g></g></g><g fill="#dd0000" fill-opacity="1"><g transform="translate(314.88774, 204.374987)"><g><path d="M 15.578125 0.71875 C 12.253906 0.71875 9.695312 -0.179688 7.90625 -1.984375 C 6.125 -3.796875 5.234375 -6.503906 5.234375 -10.109375 L 5.234375 -25.15625 L 1.546875 -25.15625 L 1.546875 -29.328125 L 4.765625 -33.015625 L 10.703125 -39.96875 L 14.328125 -39.96875 L 14.328125 -32.828125 L 22.90625 -32.828125 L 22.90625 -25.15625 L 14.328125 -25.15625 L 14.328125 -11.25 C 14.328125 -10.019531 14.601562 -9.066406 15.15625 -8.390625 C 15.71875 -7.710938 16.535156 -7.375 17.609375 -7.375 C 18.921875 -7.375 20.425781 -7.710938 22.125 -8.390625 L 23.734375 -1.125 C 22.390625 -0.488281 21.007812 -0.0234375 19.59375 0.265625 C 18.1875 0.566406 16.847656 0.71875 15.578125 0.71875 Z M 15.578125 0.71875 "/></g></g></g><g fill="#dd0000" fill-opacity="1"><g transform="translate(340.163606, 204.374987)"><g><path d="M 30.453125 -13.625 L 11.125 -13.625 C 11.519531 -11.320312 12.359375 -9.632812 13.640625 -8.5625 C 14.929688 -7.488281 16.570312 -6.953125 18.5625 -6.953125 C 19.832031 -6.953125 21.179688 -7.128906 22.609375 -7.484375 C 24.035156 -7.847656 25.320312 -8.40625 26.46875 -9.15625 L 28.375 -2.140625 C 26.820312 -1.148438 25.15625 -0.4375 23.375 0 C 21.59375 0.4375 19.707031 0.65625 17.71875 0.65625 C 14.632812 0.65625 11.898438 -0.046875 9.515625 -1.453125 C 7.140625 -2.859375 5.273438 -4.84375 3.921875 -7.40625 C 2.578125 -9.96875 1.90625 -12.992188 1.90625 -16.484375 C 1.90625 -19.804688 2.53125 -22.742188 3.78125 -25.296875 C 5.03125 -27.859375 6.820312 -29.863281 9.15625 -31.3125 C 11.5 -32.757812 14.253906 -33.484375 17.421875 -33.484375 C 20.203125 -33.484375 22.640625 -32.867188 24.734375 -31.640625 C 26.835938 -30.410156 28.472656 -28.734375 29.640625 -26.609375 C 30.816406 -24.492188 31.40625 -22.046875 31.40625 -19.265625 C 31.40625 -18.234375 31.316406 -17.234375 31.140625 -16.265625 C 30.960938 -15.296875 30.734375 -14.414062 30.453125 -13.625 Z M 17.125 -25.9375 C 13.71875 -25.9375 11.71875 -23.710938 11.125 -19.265625 L 22.484375 -19.328125 C 22.441406 -21.546875 21.945312 -23.203125 21 -24.296875 C 20.050781 -25.390625 18.757812 -25.9375 17.125 -25.9375 Z M 17.125 -25.9375 "/></g></g></g></svg>